<svg version="1.2" xmlns="http://www.w3.org/2000/svg" viewBox="0 0 64 64" width="64" height="64">
	<title>brand</title>
	<style>
		.s0 { fill: #fffcfc } 
	</style>
	<g id="_07-Advertising">
		<path fill-rule="evenodd" class="s0" d="m56.8 31.2q0.1 0.1 0.1 0.2 0.1 0.2 0.1 0.3 0 0.1 0 0.2 0 0.2-0.1 0.3 0 0.1-0.1 0.2-0.1 0.1-0.2 0.2-0.1 0.1-0.2 0.1-0.1 0.1-0.2 0.1c-0.1 0-15.6 3.2-20.3 4.8-3.6 1.2-13.4 6.1-14.2 6.6l-0.8 0.5 8.2 11.4q0.5 0.6 0.6 1.4 0.2 0.8 0.1 1.6-0.1 0.7-0.6 1.4-0.4 0.7-1 1.2-0.3 0.1-0.6 0.3-0.2 0.1-0.5 0.2-0.3 0.1-0.6 0.2-0.3 0-0.7 0-0.4 0-0.9-0.1-0.5-0.1-0.9-0.3-0.4-0.3-0.8-0.6-0.3-0.3-0.6-0.7l-8.2-11.3q-0.5 0.3-1 0.6-0.6 0.3-1.2 0.5-0.6 0.2-1.2 0.3-0.6 0.1-1.2 0.1-0.2 0-0.4 0-0.1 0-0.3-0.1-0.2 0-0.3 0-0.2 0-0.3 0c-1.6-0.3-3.1-1-4.2-2.1-1.2-1.1-2-2.5-2.4-4-0.3-1.5-0.2-3.2 0.3-4.6 0.6-1.5 1.6-2.8 2.9-3.7l7.2-5.2c0.6-0.6 8.5-8.4 10.8-11.4 3-4 11-17.6 11-17.7q0.2-0.2 0.4-0.4 0.2-0.1 0.5-0.1 0.2 0 0.4 0.1 0.3 0.1 0.4 0.3l7.6 10.6q0.8-0.6 1.8-0.9 0.9-0.2 1.9 0 1 0.1 1.9 0.7 0.8 0.5 1.4 1.3 0.6 0.8 0.8 1.8 0.2 0.9 0.1 1.9-0.2 1-0.7 1.9-0.6 0.8-1.4 1.4zm-2.5 0l-19.2-26.8c-2.1 3.6-7.8 13.2-10.3 16.5-2.1 2.8-8.5 9.1-10.5 11.1l7.2 10c2.5-1.3 10.5-5.2 13.8-6.3 4-1.3 15-3.7 19-4.5zm-47.7 16.8q1 0.6 2.2 0.8 1.2 0.2 2.3-0.1 1.2-0.3 2.2-1l6.5-4.6-7-9.8-6.5 4.7q-1 0.7-1.6 1.7-0.6 1-0.8 2.2-0.2 1.2 0 2.3 0.3 1.2 1 2.2 0.7 0.9 1.7 1.6zm12.7-2.1l-3.2 2.3 8.1 11.4c0.3 0.4 0.8 0.7 1.3 0.8 0.6 0.1 1.1-0.1 1.5-0.4 0.5-0.3 0.7-0.8 0.8-1.3q0.1-0.7-0.3-1.5zm28.8-26.8q0.4-0.3 0.7-0.8 0.4-0.5 0.5-1.1 0.1-0.6-0.1-1.2-0.1-0.6-0.5-1.1-0.3-0.4-0.8-0.8-0.5-0.3-1.1-0.4-0.6-0.1-1.2 0.1-0.6 0.1-1.1 0.5zm4.2-6.5q-0.1-0.2-0.2-0.4 0-0.2 0-0.4 0-0.2 0.1-0.3 0.1-0.2 0.3-0.3l8-6q0.3-0.3 0.7-0.2 0.4 0.1 0.7 0.4 0.2 0.3 0.2 0.7-0.1 0.4-0.4 0.7l-8 6q-0.1 0-0.2 0.1 0 0-0.1 0-0.1 0.1-0.2 0.1 0 0-0.1 0-0.1 0-0.2 0-0.2-0.1-0.3-0.1-0.1-0.1-0.2-0.2-0.1 0-0.1-0.1zm-3.2-3.8l1-6q0.1-0.4 0.4-0.6 0.3-0.3 0.7-0.2 0.4 0.1 0.7 0.4 0.2 0.3 0.2 0.7l-1 6q0 0.2-0.1 0.4-0.1 0.1-0.3 0.2-0.1 0.2-0.3 0.2-0.1 0.1-0.3 0.1h-0.2q-0.2 0-0.4-0.2-0.1-0.1-0.2-0.2-0.2-0.2-0.2-0.4-0.1-0.2 0-0.4zm12.9 10.6q-0.1 0.1-0.2 0.2 0 0.1-0.2 0.2-0.1 0.1-0.2 0.1-0.2 0.1-0.3 0.1-0.1 0-0.1 0-0.1 0-0.1 0-0.1-0.1-0.1-0.1-0.1 0-0.1 0l-7-3q-0.4-0.2-0.5-0.5-0.2-0.4 0-0.8 0.2-0.4 0.5-0.5 0.4-0.2 0.8 0l7 3q0.2 0 0.3 0.2 0.1 0.1 0.2 0.3 0.1 0.2 0.1 0.4 0 0.2-0.1 0.4z"/>
	</g>
</svg>